<svg xmlns="http://www.w3.org/2000/svg" xmlns:xlink="http://www.w3.org/1999/xlink" version="1.1" width="1278.372pt" height="712.6966pt" viewBox="0 0 1278.372 712.6966">
<defs>
<clipPath id="clip_0">
<path transform="matrix(1,0,0,-1,0,712.6966)" d="M276.5664 219.4512H1242.3724V609.77407H276.5664Z"/>
</clipPath>
<clipPath id="clip_1">
<path transform="matrix(1,0,0,-1,0,712.6966)" d="M517.8432 629.073H978.44436V680.3203H517.8432Z"/>
</clipPath>
<clipPath id="clip_2">
<path transform="matrix(1,0,0,-1,0,712.6966)" d="M83.32603 404.9529H140.5024V433.35078H83.32603Z"/>
</clipPath>
<clipPath id="clip_3">
<path transform="matrix(1,0,0,-1,0,712.6966)" d="M83.32603 389.4736H140.5024V416.77278H83.32603Z"/>
</clipPath>
<clipPath id="clip_4">
<path transform="matrix(1,0,0,-1,0,712.6966)" d="M91.04391 436.8436H132.78452V478.59388H91.04391Z"/>
</clipPath>
<clipPath id="clip_5">
<path transform="matrix(1,0,0,-1,0,712.6966)" d="M36.23616 350.8674H187.59226V379.39509H36.23616Z"/>
</clipPath>
<clipPath id="clip_6">
<path transform="matrix(1,0,0,-1,0,712.6966)" d="M321.2282 426.4092H461.40943V522.0449H321.2282Z"/>
</clipPath>
<clipPath id="clip_7">
<path transform="matrix(1,0,0,-1,0,712.6966)" d="M322.2282 427.4092H460.40943V521.0449H322.2282Z"/>
</clipPath>
<clipPath id="clip_8">
<path transform="matrix(1,0,0,-1,0,712.6966)" d="M332.7431 521.673H449.8945V552.92239H332.7431Z"/>
</clipPath>
<clipPath id="clip_9">
<path transform="matrix(1,0,0,-1,0,712.6966)" d="M576.1154 426.4092H706.7594V522.0449H576.1154Z"/>
</clipPath>
<clipPath id="clip_10">
<path transform="matrix(1,0,0,-1,0,712.6966)" d="M577.1154 427.4092H705.7594V521.0449H577.1154Z"/>
</clipPath>
<clipPath id="clip_11">
<path transform="matrix(1,0,0,-1,0,712.6966)" d="M576.1154 247.8205H706.7594V343.45619H576.1154Z"/>
</clipPath>
<clipPath id="clip_12">
<path transform="matrix(1,0,0,-1,0,712.6966)" d="M577.1154 248.8205H705.7594V342.45619H577.1154Z"/>
</clipPath>
<clipPath id="clip_13">
<path transform="matrix(1,0,0,-1,0,712.6966)" d="M813.0173 411.253H943.66128V506.88868H813.0173Z"/>
</clipPath>
<clipPath id="clip_14">
<path transform="matrix(1,0,0,-1,0,712.6966)" d="M814.0173 412.253H942.66128V505.88868H814.0173Z"/>
</clipPath>
<clipPath id="clip_15">
<path transform="matrix(1,0,0,-1,0,712.6966)" d="M788.1798 371.1099H1218.2366V547.0318H788.1798Z"/>
</clipPath>
<clipPath id="clip_16">
<path transform="matrix(1,0,0,-1,0,712.6966)" d="M1008.595 411.253H1197.9824V506.88868H1008.595Z"/>
</clipPath>
<clipPath id="clip_17">
<path transform="matrix(1,0,0,-1,0,712.6966)" d="M1009.595 412.253H1196.9824V505.88868H1009.595Z"/>
</clipPath>
<clipPath id="clip_18">
<path transform="matrix(1,0,0,-1,0,712.6966)" d="M582.8618 521.673H700.0132V552.92239H582.8618Z"/>
</clipPath>
<clipPath id="clip_19">
<path transform="matrix(1,0,0,-1,0,712.6966)" d="M582.8618 340.9709H700.0132V372.2203H582.8618Z"/>
</clipPath>
<clipPath id="clip_20">
<path transform="matrix(1,0,0,-1,0,712.6966)" d="M861.9254 547.2669H1101.812V577.2852H861.9254Z"/>
</clipPath>
<clipPath id="clip_21">
<path transform="matrix(1,0,0,-1,0,712.6966)" d="M174.5129 420.4126H242.5559V408.8126H174.5129Z"/>
</clipPath>
<clipPath id="clip_22">
<path transform="matrix(1,0,0,-1,0,712.6966)" d="M0 0H1278.372V712.6966H0Z"/>
</clipPath>
<clipPath id="clip_23">
<path transform="matrix(1,0,0,-1,0,712.6966)" d="M459.3996 467.2971H578.1258V478.89668H459.3996Z"/>
</clipPath>
<clipPath id="clip_24">
<path transform="matrix(1,0,0,-1,0,712.6966)" d="M575.7979 340.3374H594.3999V429.52799H575.7979Z"/>
</clipPath>
<clipPath id="clip_25">
<path transform="matrix(1,0,0,-1,0,712.6966)" d="M688.9672 340.2232H707.87277V429.6214H688.9672Z"/>
</clipPath>
<clipPath id="clip_26">
<path transform="matrix(1,0,0,-1,0,712.6966)" d="M704.7503 466.8325H815.1272V478.38285H704.7503Z"/>
</clipPath>
<clipPath id="clip_27">
<path transform="matrix(1,0,0,-1,0,712.6966)" d="M941.6613 453.2709H1010.5946V464.8709H941.6613Z"/>
</clipPath>
<clipPath id="clip_28">
<path transform="matrix(1,0,0,-1,0,712.6966)" d="M1048.153 36H1158.4246V146.5968H1048.153Z"/>
</clipPath>
<clipPath id="clip_29">
<path transform="matrix(1,0,0,-1,0,712.6966)" d="M1049.153 37H1157.4246V145.5968H1049.153Z"/>
</clipPath>
<clipPath id="clip_30">
<path transform="matrix(1,0,0,-1,0,712.6966)" d="M1105.275 92.04804H1186.6178V413.72874H1105.275Z"/>
</clipPath>
</defs>
<g clip-path="url(#clip_0)">
<path transform="matrix(1,0,0,1,278.0664,104.42261)" stroke-width="1.1" stroke-linecap="butt" stroke-dasharray="1.1,1.1" stroke-miterlimit="4" stroke-linejoin="miter" fill="none" stroke="#000000" d="M119.2405 0H843.5655C878.5565 0 899.5511 0 913.5476 5.843314 933.7246 13.18715 949.6188 29.08138 956.9627 49.25842 962.806 63.25483 962.806 84.24945 962.806 119.2405V268.0823C962.806 303.0734 962.806 324.068 956.9627 338.0644 949.6188 358.2414 933.7246 374.1357 913.5476 381.4795 899.5511 387.3228 878.5565 387.3228 843.5655 387.3228H119.2405C84.24945 387.3228 63.25483 387.3228 49.25842 381.4795 29.08138 374.1357 13.18715 358.2414 5.843314 338.0644 0 324.068 0 303.0734 0 268.0823V119.2405C0 84.24945 0 63.25483 5.843314 49.25842 13.18715 29.08138 29.08138 13.18715 49.25842 5.843314 63.25483 0 84.24945 0 119.2405 0ZM119.2405 0"/>
</g>
<g clip-path="url(#clip_1)">
<text xml:space="preserve" transform="matrix(1 0 -0 1 534.9693 68.82178)" font-size="29.28896" font-family=".SFNS"><tspan y="0" x="0 19.119833 35.545083 51.88246 67.31189 83.94216 101.1875 119.018619 125.192729 140.65145 157.28171 168.8157 184.68445 192.11798 208.45537 225.08563 231.25975 242.82303 258.6918 266.12535 282.5506 288.7247 307.87385 325.0313 343.33106 361.33793 367.51203 388.18418 406.65965 414.7961">Backend service (via REST API)</tspan></text>
</g>
<g clip-path="url(#clip_2)">
<path transform="matrix(1,0,0,-1,0,712.6966)" d="M96.97796 432.3507H126.8505C130.5632 432.3507 132.7908 432.3507 134.2759 431.7307 136.4167 430.9515 138.1032 429.2651 138.8824 427.1242 139.5024 425.6391 139.5024 423.4115 139.5024 419.6988V418.6048C139.5024 414.8921 139.5024 412.6645 138.8824 411.1794 138.1032 409.0385 136.4167 407.3521 134.2759 406.5729 132.7908 405.9529 130.5632 405.9529 126.8505 405.9529H96.97796C93.26526 405.9529 91.03764 405.9529 89.55256 406.5729 87.41169 407.3521 85.72524 409.0385 84.94603 411.1794 84.32603 412.6645 84.32603 414.8921 84.32603 418.6048V419.6988C84.32603 423.4115 84.32603 425.6391 84.94603 427.1242 85.72524 429.2651 87.41169 430.9515 89.55256 431.7307 91.03764 432.3507 93.26526 432.3507 96.97796 432.3507ZM96.97796 432.3507" fill="#5ac4f6"/>
</g>
<g clip-path="url(#clip_3)">
<path transform="matrix(1,0,0,-1,0,712.6966)" d="M84.32603 390.4736H139.5024V415.77278H84.32603Z" fill="#5ac4f6"/>
</g>
<g clip-path="url(#clip_4)">
<path transform="matrix(1,0,0,-1,0,712.6966)" d="M125.9646 471.7726C133.7245 464.0109 133.7245 451.4266 125.9646 443.6649 118.2048 435.9032 105.6236 435.9032 97.86378 443.6649 90.10395 451.4266 90.10395 464.0109 97.86378 471.7726 105.6236 479.5343 118.2048 479.5343 125.9646 471.7726ZM125.9646 471.7726" fill="#5ac4f6"/>
</g>
<g clip-path="url(#clip_5)">
<text xml:space="preserve" transform="matrix(1 0 -0 1 43.62265 353.6525)" font-size="16.17967" font-family=".SFNS"><tspan y="0" x="0 11.660688 16.105244 20.42036 29.815896 39.632104 45.96968 49.81559 59.01697 69.15677 79.29657 83.74113 88.056247 97.225269 106.42664 112.76422 117.07934 126.766109">Client application</tspan></text>
</g>
<g clip-path="url(#clip_6)">
<path transform="matrix(1,0,0,-1,0,712.6966)" d="M351.7262 521.0449H430.9113C439.5675 521.0449 444.7612 521.0449 448.2236 519.5994 453.2151 517.7827 457.1471 513.8507 458.9638 508.8593 460.4093 505.3968 460.4093 500.2031 460.4093 491.5469V456.9073C460.4093 448.2511 460.4093 443.0574 458.9638 439.5949 457.1471 434.6035 453.2151 430.6715 448.2236 428.8548 444.7612 427.4092 439.5675 427.4092 430.9113 427.4092H351.7262C343.07 427.4092 337.8763 427.4092 334.4139 428.8548 329.4224 430.6715 325.4904 434.6035 323.6737 439.5949 322.2282 443.0574 322.2282 448.2511 322.2282 456.9073V491.5469C322.2282 500.2031 322.2282 505.3968 323.6737 508.8593 325.4904 513.8507 329.4224 517.7827 334.4139 519.5994 337.8763 521.0449 343.07 521.0449 351.7262 521.0449ZM351.7262 521.0449" fill="#666666"/>
</g>
<g clip-path="url(#clip_7)">
<text fill="#ffffff" xml:space="preserve" transform="matrix(1 0 -0 1 332.2442 228.80789)" font-size="12" font-family=".SFNS"><tspan y="0" x="0">&#x2022;</tspan></text>
<text fill="#ffffff" xml:space="preserve" transform="matrix(1 0 -0 1 344.3907 228.80789)" font-size="12" font-family=".SFNS"><tspan y="0" x="0 7.914 12.739201 20.0484 27.702002 35.0364 42.0432 46.777204 55.56 62.869207 70.203609 74.93761 79.76281 87.07201 90.426 93.78 100.86 105.84241">ProductController </tspan></text>
<text fill="#ffffff" xml:space="preserve" transform="matrix(1 0 -0 1 332.2282 243.80789)" font-size="12" font-family=".SFNS"><tspan y="0" x="0">&#x2022;</tspan></text>
<text fill="#ffffff" xml:space="preserve" transform="matrix(1 0 -0 1 350.9318 243.80789)" font-size="12" font-family=".SFNS"><tspan y="0" x="0 7.9344 12.6084 19.9176 26.844 33.7104 42.4932 49.802404 57.136804 61.870805 66.69601 74.0052 77.3592 80.713199 87.7932 92.775608">StockController </tspan></text>
<text fill="#ffffff" xml:space="preserve" transform="matrix(1 0 -0 1 332.2507 258.8079)" font-size="12" font-family=".SFNS"><tspan y="0" x="0">&#x2022;</tspan></text>
<text fill="#ffffff" xml:space="preserve" transform="matrix(1 0 -0 1 391.3848 258.8079)" font-size="12" font-family=".SFNS"><tspan y="0" x="0 3.9480005 7.896001">...</tspan></text>
</g>
<g clip-path="url(#clip_8)">
<text xml:space="preserve" transform="matrix(1 0 -0 1 349.4586 182.22748)" font-size="17.4053" font-family=".SFNS"><tspan y="0" x="0 12.4587149 22.793982 33.268495 40.000864 46.907289 57.242555 61.921098 66.59964 76.60421">Controller</tspan></text>
</g>
<g clip-path="url(#clip_9)">
<path transform="matrix(1,0,0,-1,0,712.6966)" d="M606.6135 521.0449H676.2614C684.9176 521.0449 690.1113 521.0449 693.5738 519.5994 698.5653 517.7827 702.4972 513.8507 704.314 508.8593 705.7595 505.3968 705.7595 500.2031 705.7595 491.5469V456.9073C705.7595 448.2511 705.7595 443.0574 704.314 439.5949 702.4972 434.6035 698.5653 430.6715 693.5738 428.8548 690.1113 427.4092 684.9176 427.4092 676.2614 427.4092H606.6135C597.9573 427.4092 592.7636 427.4092 589.3011 428.8548 584.3097 430.6715 580.3777 434.6035 578.561 439.5949 577.1154 443.0574 577.1154 448.2511 577.1154 456.9073V491.5469C577.1154 500.2031 577.1154 505.3968 578.561 508.8593 580.3777 513.8507 584.3097 517.7827 589.3011 519.5994 592.7636 521.0449 597.9573 521.0449 606.6135 521.0449ZM606.6135 521.0449" fill="#666666"/>
</g>
<g clip-path="url(#clip_10)">
<text fill="#ffffff" xml:space="preserve" transform="matrix(1 0 -0 1 587.1314 228.80789)" font-size="12" font-family=".SFNS"><tspan y="0" x="0">&#x2022;</tspan></text>
<text fill="#ffffff" xml:space="preserve" transform="matrix(1 0 -0 1 601.951 228.80789)" font-size="12" font-family=".SFNS"><tspan y="0" x="0 7.914 12.739201 20.0484 27.702002 35.0364 42.0432 46.777204 54.7116 61.791604 66.87 73.6836 76.9524 83.87881 90.95881">ProductService </tspan></text>
<text fill="#ffffff" xml:space="preserve" transform="matrix(1 0 -0 1 587.1154 243.80789)" font-size="12" font-family=".SFNS"><tspan y="0" x="0">&#x2022;</tspan></text>
<text fill="#ffffff" xml:space="preserve" transform="matrix(1 0 -0 1 608.4828 243.80789)" font-size="12" font-family=".SFNS"><tspan y="0" x="0 7.9344 12.6084 19.9176 26.844 33.7284 41.6628 48.7428 53.8212 60.6348 63.9036 70.83 77.91">StockService </tspan></text>
<text fill="#ffffff" xml:space="preserve" transform="matrix(1 0 -0 1 587.138 258.8079)" font-size="12" font-family=".SFNS"><tspan y="0" x="0">&#x2022;</tspan></text>
<text fill="#ffffff" xml:space="preserve" transform="matrix(1 0 -0 1 641.5036 258.8079)" font-size="12" font-family=".SFNS"><tspan y="0" x="0 3.9480005 7.896001">...</tspan></text>
</g>
<g clip-path="url(#clip_11)">
<path transform="matrix(1,0,0,-1,0,712.6966)" d="M606.6135 342.4562H676.2614C684.9176 342.4562 690.1113 342.4562 693.5738 341.0107 698.5653 339.1939 702.4972 335.262 704.314 330.2705 705.7595 326.8081 705.7595 321.6144 705.7595 312.9582V278.3186C705.7595 269.6624 705.7595 264.4687 704.314 261.0062 702.4972 256.0148 698.5653 252.0828 693.5738 250.2661 690.1113 248.8205 684.9176 248.8205 676.2614 248.8205H606.6135C597.9573 248.8205 592.7636 248.8205 589.3011 250.2661 584.3097 252.0828 580.3777 256.0148 578.561 261.0062 577.1154 264.4687 577.1154 269.6624 577.1154 278.3186V312.9582C577.1154 321.6144 577.1154 326.8081 578.561 330.2705 580.3777 335.262 584.3097 339.1939 589.3011 341.0107 592.7636 342.4562 597.9573 342.4562 606.6135 342.4562ZM606.6135 342.4562" fill="#666666"/>
</g>
<g clip-path="url(#clip_12)">
<text fill="#ffffff" xml:space="preserve" transform="matrix(1 0 -0 1 587.1335 407.1623)" font-size="12" font-family=".SFNS"><tspan y="0" x="0">&#x2022;</tspan></text>
<text fill="#ffffff" xml:space="preserve" transform="matrix(1 0 -0 1 624.0405 407.1623)" font-size="12" font-family=".SFNS"><tspan y="0" x="0 7.914 12.744 20.058 27.708 35.046 42.048 46.782">Product </tspan></text>
<text fill="#ffffff" xml:space="preserve" transform="matrix(1 0 -0 1 587.1154 422.1623)" font-size="12" font-family=".SFNS"><tspan y="0" x="0">&#x2022;</tspan></text>
<text fill="#ffffff" xml:space="preserve" transform="matrix(1 0 -0 1 630.5363 422.1623)" font-size="12" font-family=".SFNS"><tspan y="0" x="0 7.9343998 12.6048 19.9152 26.841599 33.804">Stock </tspan></text>
<text fill="#ffffff" xml:space="preserve" transform="matrix(1 0 -0 1 587.1359 437.1623)" font-size="12" font-family=".SFNS"><tspan y="0" x="0">&#x2022;</tspan></text>
<text fill="#ffffff" xml:space="preserve" transform="matrix(1 0 -0 1 641.5046 437.1623)" font-size="12" font-family=".SFNS"><tspan y="0" x="0 3.9480005 7.896001">...</tspan></text>
</g>
<g clip-path="url(#clip_13)">
<path transform="matrix(1,0,0,-1,0,712.6966)" d="M843.5153 505.8887H913.1633C921.8195 505.8887 927.0132 505.8887 930.4757 504.4432 935.4671 502.6264 939.3991 498.6945 941.2158 493.703 942.6613 490.2406 942.6613 485.0469 942.6613 476.3907V441.7511C942.6613 433.0949 942.6613 427.9012 941.2158 424.4387 939.3991 419.4472 935.4671 415.5153 930.4757 413.6985 927.0132 412.253 921.8195 412.253 913.1633 412.253H843.5153C834.8592 412.253 829.6655 412.253 826.203 413.6985 821.2115 415.5153 817.2796 419.4472 815.4628 424.4387 814.0173 427.9012 814.0173 433.0949 814.0173 441.7511V476.3907C814.0173 485.0469 814.0173 490.2406 815.4628 493.703 817.2796 498.6945 821.2115 502.6264 826.203 504.4432 829.6655 505.8887 834.8592 505.8887 843.5153 505.8887ZM843.5153 505.8887" fill="#666666"/>
</g>
<g clip-path="url(#clip_14)">
<text fill="#ffffff" xml:space="preserve" transform="matrix(1 0 -0 1 824.0333 243.96408)" font-size="12" font-family=".SFNS"><tspan y="0" x="0">&#x2022;</tspan></text>
<text fill="#ffffff" xml:space="preserve" transform="matrix(1 0 -0 1 847.9457 243.96408)" font-size="12" font-family=".SFNS"><tspan y="0" x="0 7.914 12.744 20.058 27.708 35.046 42.048 46.782 55.272005 63.414007 72.78001">ProductDAO </tspan></text>
<text fill="#ffffff" xml:space="preserve" transform="matrix(1 0 -0 1 824.0173 258.96409)" font-size="12" font-family=".SFNS"><tspan y="0" x="0">&#x2022;</tspan></text>
<text fill="#ffffff" xml:space="preserve" transform="matrix(1 0 -0 1 854.4404 258.96409)" font-size="12" font-family=".SFNS"><tspan y="0" x="0 7.9343998 12.6048 19.9152 26.841599 33.804 42.2904 50.428804 59.803205">StockDAO </tspan></text>
<text fill="#ffffff" xml:space="preserve" transform="matrix(1 0 -0 1 824.0399 273.96409)" font-size="12" font-family=".SFNS"><tspan y="0" x="0">&#x2022;</tspan></text>
<text fill="#ffffff" xml:space="preserve" transform="matrix(1 0 -0 1 878.4054 273.96409)" font-size="12" font-family=".SFNS"><tspan y="0" x="0 3.9480005 7.896001">...</tspan></text>
</g>
<g clip-path="url(#clip_15)">
<path transform="matrix(1,0,0,1,789.6798,167.1648)" stroke-width="1.1" stroke-linecap="butt" stroke-dasharray="1.1,1.1" stroke-miterlimit="4" stroke-linejoin="miter" fill="none" stroke="#000000" d="M48.26497 0H378.7918C392.9551 0 401.4531 0 407.1184 2.365198 415.2855 5.337764 421.719 11.77127 424.6915 19.93833 427.0567 25.60366 427.0567 34.10165 427.0567 48.26497V124.6569C427.0567 138.8202 427.0567 147.3182 424.6915 152.9835 421.719 161.1506 415.2855 167.5841 407.1184 170.5567 401.4531 172.9219 392.9551 172.9219 378.7918 172.9219H48.26497C34.10165 172.9219 25.60366 172.9219 19.93833 170.5567 11.77127 167.5841 5.337764 161.1506 2.365198 152.9835 0 147.3182 0 138.8202 0 124.6569V48.26497C0 34.10165 0 25.60366 2.365198 19.93833 5.337764 11.77127 11.77127 5.337764 19.93833 2.365198 25.60366 0 34.10165 0 48.26497 0ZM48.26497 0"/>
</g>
<g clip-path="url(#clip_16)">
<path transform="matrix(1,0,0,-1,0,712.6966)" d="M1039.093 505.8887H1167.484C1176.14 505.8887 1181.334 505.8887 1184.796 504.4432 1189.788 502.6264 1193.72 498.6945 1195.537 493.703 1196.982 490.2406 1196.982 485.0469 1196.982 476.3907V441.7511C1196.982 433.0949 1196.982 427.9012 1195.537 424.4387 1193.72 419.4472 1189.788 415.5153 1184.796 413.6985 1181.334 412.253 1176.14 412.253 1167.484 412.253H1039.093C1030.437 412.253 1025.243 412.253 1021.78 413.6985 1016.789 415.5153 1012.857 419.4472 1011.04 424.4387 1009.595 427.9012 1009.595 433.0949 1009.595 441.7511V476.3907C1009.595 485.0469 1009.595 490.2406 1011.04 493.703 1012.857 498.6945 1016.789 502.6264 1021.78 504.4432 1025.243 505.8887 1030.437 505.8887 1039.093 505.8887ZM1039.093 505.8887" fill="#666666"/>
</g>
<g clip-path="url(#clip_17)">
<text fill="#ffffff" xml:space="preserve" transform="matrix(1 0 -0 1 1019.613 243.7298)" font-size="12" font-family=".SFNS"><tspan y="0" x="0">&#x2022;</tspan></text>
<text fill="#ffffff" xml:space="preserve" transform="matrix(1 0 -0 1 1060.161 243.7298)" font-size="12" font-family=".SFNS"><tspan y="0" x="0 7.914 12.744 20.058 27.708 35.046 42.048 46.782 55.272005 63.414007 72.78001 76.37401 87.28801 94.89001 98.24401">ProductDAOImpl </tspan></text>
<text fill="#ffffff" xml:space="preserve" transform="matrix(1 0 -0 1 1019.595 258.7298)" font-size="12" font-family=".SFNS"><tspan y="0" x="0">&#x2022;</tspan></text>
<text fill="#ffffff" xml:space="preserve" transform="matrix(1 0 -0 1 1066.656 258.7298)" font-size="12" font-family=".SFNS"><tspan y="0" x="0 7.9343998 12.6048 19.9152 26.841599 33.804 42.2904 50.428804 59.803205 63.393606 74.304 81.902408 85.25281">StockDAOImpl </tspan></text>
<text fill="#ffffff" xml:space="preserve" transform="matrix(1 0 -0 1 1019.615 273.7298)" font-size="12" font-family=".SFNS"><tspan y="0" x="0">&#x2022;</tspan></text>
<text fill="#ffffff" xml:space="preserve" transform="matrix(1 0 -0 1 1103.356 273.7298)" font-size="12" font-family=".SFNS"><tspan y="0" x="0 3.9480005 7.896001">...</tspan></text>
</g>
<g clip-path="url(#clip_18)">
<text xml:space="preserve" transform="matrix(1 0 -0 1 610.1239 182.22748)" font-size="17.4053" font-family=".SFNS"><tspan y="0" x="0 11.301262 21.314532 28.595171 38.295145 42.843149 52.612745">Service</tspan></text>
</g>
<g clip-path="url(#clip_19)">
<text xml:space="preserve" transform="matrix(1 0 -0 1 615.8153 362.9295)" font-size="17.4053" font-family=".SFNS"><tspan y="0" x="0 15.330588 25.665856 36.558095 46.56266">Model</tspan></text>
</g>
<g clip-path="url(#clip_20)">
<text xml:space="preserve" transform="matrix(1 0 -0 1 879.9883 156.83191)" font-size="17.01286" font-family=".SFNS"><tspan y="0" x="0 12.206727 21.810486 28.40297 38.00673 41.96222 53.505445 63.075178 72.64491 82.435817 91.47815 100.69061 104.6461 114.33493 123.683498 133.04907 142.83998 149.82376 153.77925 160.64394 172.39131 183.8835 196.83879">Data Access Layer (DAO)</tspan></text>
</g>
<g clip-path="url(#clip_21)">
<g clip-path="url(#clip_22)">
<path transform="matrix(1,0,0,1,175.5129,298.08399)" stroke-width="2" stroke-linecap="butt" stroke-miterlimit="4" stroke-linejoin="miter" fill="none" stroke="#000000" d="M0 0H56.44306 57.44306"/>
<path transform="matrix(1,0,0,-1,0,712.6966)" d="M231.9559 409.8126 241.5559 414.6126 231.9559 419.4126ZM231.9559 409.8126"/>
</g>
</g>
<g clip-path="url(#clip_23)">
<path transform="matrix(1,0,0,1,460.4094,239.5087)" stroke-width="2" stroke-linecap="butt" stroke-miterlimit="4" stroke-linejoin="miter" fill="none" stroke="#000000" d="M0 .02125873C36.1152 .3721562 71.81738 .3954013 107.1065 .0909939L108.1065 .08151534"/>
<path transform="matrix(1,0,0,-1,0,712.6966)" d="M567.5614 468.2971 577.1155 473.1879 567.4704 477.8967ZM567.5614 468.2971"/>
</g>
<g clip-path="url(#clip_24)">
<path transform="matrix(1,0,0,1,577.7979,284.73469)" stroke-width="2" stroke-linecap="butt" stroke-miterlimit="4" stroke-linejoin="miter" fill="none" stroke="#000000" d="M10.23658 78.75507 9.708549 77.90585C-4.748985 51.93602-3.058901 25.96801 14.77767 0"/>
<path transform="matrix(1,0,0,-1,0,712.6966)" d="M583.4301 347.5215 592.5755 341.9035 591.5827 352.5906ZM583.4301 347.5215"/>
</g>
<g clip-path="url(#clip_25)">
<path transform="matrix(1,0,0,1,690.7875,284.6471)" stroke-width="2" stroke-linecap="butt" stroke-miterlimit="4" stroke-linejoin="miter" fill="none" stroke="#000000" d="M.1090181 86.25469C18.23329 60.23825 19.90704 34.19224 5.130274 8.116664L4.594875 7.269603"/>
<path transform="matrix(1,0,0,-1,0,712.6966)" d="M699.9741 422.4991 690.7875 428.0495 691.8592 417.37ZM699.9741 422.4991"/>
</g>
<g clip-path="url(#clip_26)">
<path transform="matrix(1,0,0,1,705.7595,236.57498)" stroke-width="2" stroke-linecap="butt" stroke-miterlimit="4" stroke-linejoin="miter" fill="none" stroke="#000000" d="M99.70232 3.615489 98.7075 3.513919C70.53223 .8653904 37.62983-.2859326 0 .05991976"/>
<path transform="matrix(1,0,0,-1,0,712.6966)" d="M803.9795 467.8325 814.0173 471.6326 804.9545 477.3829ZM803.9795 467.8325"/>
</g>
<g clip-path="url(#clip_27)">
<path transform="matrix(1,0,0,1,942.6613,253.6257)" stroke-width="2" stroke-linecap="butt" stroke-miterlimit="4" stroke-linejoin="miter" fill="none" stroke="#000000" d="M0 0C19.1111 0 38.22219 0 57.33329 0H58.33329"/>
<path transform="matrix(1,0,0,-1,0,712.6966)" d="M999.9946 454.2709 1009.595 459.0709 999.9946 463.8709ZM999.9946 454.2709"/>
</g>
<g clip-path="url(#clip_28)">
<path transform="matrix(1,0,0,-1,0,712.6966)" d="M1103.293 145.5968C1088.999 145.5968 1075.547 143.6235 1065.471 140.0091 1055.969 136.6137 1050.522 132.099 1050.522 127.6357 1050.522 123.1723 1055.969 118.6491 1065.471 115.2537 1075.547 111.6666 1088.999 109.666 1103.293 109.666 1117.586 109.666 1131.029 111.6392 1141.106 115.2537 1150.608 118.6491 1156.055 123.1724 1156.055 127.6357 1156.055 132.099 1150.608 136.6137 1141.106 140.0091 1131.029 143.5962 1117.586 145.5968 1103.293 145.5968ZM1049.212 122.9464V115.8612C1049.212 105.2095 1073.442 96.55668 1103.344 96.55667 1133.246 96.55667 1157.424 105.1816 1157.424 115.8612V122.9464C1155.097 119.0308 1149.843 115.4779 1142.039 112.7123 1131.661 109.0156 1117.913 106.9876 1103.318 106.9876 1088.724 106.9876 1074.948 109.0156 1064.598 112.7123 1056.794 115.505 1051.541 119.0304 1049.212 122.9464ZM1049.153 108.7932V103.9499C1049.153 93.29816 1073.391 84.64533 1103.293 84.64533 1133.194 84.64534 1157.424 93.27022 1157.424 103.9499V108.7932C1156.712 107.917 1155.894 107.0645 1154.908 106.2432 1151.951 103.724 1147.76 101.5097 1142.475 99.62007 1131.96 95.86869 1118.052 93.81843 1103.293 93.81843 1088.534 93.81842 1074.617 95.86811 1064.102 99.62007 1058.817 101.5088 1054.661 103.7236 1051.677 106.2432 1050.691 107.0646 1049.864 107.9167 1049.153 108.7932ZM1049.153 96.88183V92.03857C1049.153 81.38682 1073.391 72.734 1103.293 72.734 1133.194 72.73401 1157.424 81.35889 1157.424 92.03857V96.88183C1156.712 96.00568 1155.894 95.15314 1154.908 94.33185 1151.951 91.81268 1147.76 89.59838 1142.475 87.70874 1131.96 83.95734 1118.052 81.9071 1103.293 81.9071 1088.534 81.9071 1074.617 83.95678 1064.102 87.70874 1058.817 89.59747 1054.661 91.81232 1051.677 94.33185 1050.691 95.15332 1049.864 96.00537 1049.153 96.88183ZM1049.153 84.9705V80.12724C1049.153 69.47549 1073.391 60.82267 1103.293 60.82267 1133.194 60.82267 1157.424 69.44756 1157.424 80.12724V84.9705C1156.712 84.09435 1155.894 83.24181 1154.908 82.42052 1151.951 79.90135 1147.76 77.68705 1142.475 75.7974 1131.96 72.04601 1118.052 69.99577 1103.293 69.99577 1088.534 69.99578 1074.617 72.04545 1064.102 75.7974 1058.817 77.68614 1054.661 79.90099 1051.677 82.42052 1050.691 83.24199 1049.864 84.09404 1049.153 84.9705ZM1049.153 73.05917V68.21591C1049.153 57.56416 1073.391 48.91134 1103.293 48.91134 1133.194 48.91134 1157.424 57.53622 1157.424 68.21591V73.05917C1156.712 72.18301 1155.894 71.33047 1154.908 70.50919 1151.951 67.99 1147.76 65.77572 1142.475 63.88607 1131.96 60.13468 1118.052 58.08443 1103.293 58.08443 1088.534 58.08445 1074.617 60.13412 1064.102 63.88607 1058.817 65.77481 1054.661 67.98965 1051.677 70.50919 1050.691 71.33065 1049.864 72.18319 1049.153 73.05917ZM1049.153 61.14783V56.30458C1049.153 45.65282 1073.391 37 1103.293 37 1133.194 37 1157.424 45.65283 1157.424 56.30458V61.14783C1156.712 60.27168 1155.894 59.41914 1154.908 58.59785 1151.951 56.07867 1147.76 53.86439 1142.475 51.97474 1131.96 48.22334 1118.052 46.1731 1103.293 46.1731 1088.534 46.17312 1074.617 48.22279 1064.102 51.97474 1058.817 53.86347 1054.661 56.07832 1051.677 58.59785 1050.691 59.41932 1049.864 60.27186 1049.153 61.14783ZM1049.153 61.14783" fill="#5ac4f6"/>
</g>
<g clip-path="url(#clip_29)">
<text xml:space="preserve" transform="matrix(1 0 -0 1 1085.736 590.3193)" font-size="7.2" font-family=".SFNS"><tspan y="0" x="0 5.5288798 9.89856 12.965039 17.33472 22.1508 26.520482 30.710162">Database</tspan></text>
</g>
<g clip-path="url(#clip_30)">
<path transform="matrix(1,0,0,1,1106.864,300.4488)" stroke-width="2" stroke-linecap="butt" stroke-miterlimit="4" stroke-linejoin="miter" fill="none" stroke="#000000" d="M28.43182 7.569215 28.90653 8.449356C100.4833 143.4868 93.39647 244.8643 7.650394 312.5901L6.852542 313.1951"/>
<path transform="matrix(1,0,0,-1,0,712.6966)" d="M1111.613 103.4816 1106.864 93.85626 1117.414 95.83223ZM1111.613 103.4816"/>
<path transform="matrix(1,0,0,-1,0,712.6966)" d="M1139.995 406.0771 1131.213 412.2478 1131.546 401.5198ZM1139.995 406.0771"/>
</g>
</svg>
